<?xml version="1.0" encoding="utf-8"?>
<!-- Generator: Adobe Illustrator 23.0.1, SVG Export Plug-In . SVG Version: 6.00 Build 0)  -->
<svg version="1.1" id="Layer_1" xmlns="http://www.w3.org/2000/svg" xmlns:xlink="http://www.w3.org/1999/xlink" x="0px" y="0px"
	 viewBox="0 0 1024 600" style="enable-background:new 0 0 1024 600;" xml:space="preserve">
<path style="fill:#D1D3D4;" d="M478.7,261c1.5-4,6-5.2,35.2-8.8c31.1-3.9,38.5-4.1,47.7-10.2c7.8-5.2,12.1-11.5,13.8-10.3
	c1.1,0.8-0.1,4.5-1.3,8.1c-0.7,2.2-2.3,7-5.3,11.6c-19.6,30.1-44.7,36.1-44.7,36.1c-8.6,1.9-19.5,4.4-30.3-2
	C484.3,279.9,476,268.1,478.7,261z"/>
<path style="fill:#D1D3D4;" d="M467.2,427.8c0.1,5.9,12.4,11.4,16.2,13.2c4.9,2.2,8.8,3.2,16.1,4.9c4.5,1.1,20.5,4.8,21.7,2.7
	c1.1-1.9-10.5-7-9.1-9.3c0.6-1,2.8-0.6,11.2-1.9c4-0.6,5.3-1,5.4-1.7c0-0.4-0.3-1.2-4.9-3.4c-7.4-3.6-11.2-3.8-11.9-5.1
	c-1.1-2.5,10-4.3,9-6.4c-0.8-1.6-8.2-2.1-13.8-2.4c-11.3-0.8-17-1.1-23.5,0.2C479,419.5,467.1,422,467.2,427.8z"/>
<path style="fill:#BCBEC0;" d="M387.2,205c3.4-4.1,28.8-33.7,63.5-33.3c55.6,0.7,87.9,78,97.1,99.6c12.9,30.2,30,70.5,11,108.4
	c-24.7,49.2-90.6,54.6-99.6,55.3c-38.6,3.1-71.1-11.5-88.6-19.4c-17-7.6-30.1-16.1-38.9-22.4c5.5-7.1,13-18.4,19-33.4
	c10.6-26.7,6.6-41.7,10.7-73.8C365.4,253.7,368.7,227.2,387.2,205z"/>
<path style="fill:#FFFFFF;stroke:#000000;stroke-miterlimit:10;" d="M540,338.7"/>
<path style="fill:#FFFFFF;" d="M541.7,257c-9.2,6.7-71.7,53.7-70.8,126c0.2,19.4,5,36,10.5,49.1c6.3-0.9,14.9-2.6,24.6-6.1
	c9.5-3.4,21.7-7.8,33.3-18c18.2-16.1,23.5-36.6,25.3-44c3.9-16.2,2.4-29.3,1.4-37.1c-1.8-14-5.8-24.4-13.1-43.5
	C548.6,272.3,544.6,263.3,541.7,257z"/>
<path style="fill:#FFFFFF;stroke:#000000;stroke-miterlimit:10;" d="M508,439.8"/>
<path style="fill:#58595B;" d="M493.7,205.6c2.1-0.1,4.5,5.1,4.2,9.7c-0.2,3.5-1.9,7.7-3.9,7.7c-2.1,0-3.8-4.5-4-8.1
	C489.8,210.8,491.6,205.7,493.7,205.6z"/>
<path style="fill:#FFFFFF;" d="M591.1,393.1"/>
<path style="fill:#6F7173;" d="M508,231.4c6.4-3.7,12.1-6.9,17.7-4.6c5.6,2.4,9.7,9.7,7.8,13.6c-2.2,4.6-12.2,3.5-19.6,2.6
	c-4.2-0.5-13-1.5-13.5-4.7C500.1,236,504.4,233.4,508,231.4z"/>
<path style="fill:#D1D3D4;" d="M370,234.6"/>
<path style="fill:#FEC348;" d="M418.1,170.5c-3.3,1-7.2,2.5-11.4,4.7c-3.8,2-7,4.1-9.6,6c-10.6-11.3-21.1-22.6-31.7-33.8
	c10.5,6.6,21,13.2,31.5,19.8c-3.1-10.4-6.1-20.9-9.2-31.3c6.4,8.5,12.7,16.9,19.1,25.4c2.2-10.9,4.4-21.8,6.7-32.7
	C415,142.5,416.5,156.5,418.1,170.5z"/>
<path style="fill:#FEC348;" d="M470.9,155"/>
<path style="fill:#FEC348;" d="M527.5,165.3"/>
<path style="fill:#FEC348;" d="M385.7,127.3c-1.4,0.1-2.5,1.2-2.7,2.5c-0.2,1.8,1.4,3.5,3.1,3.3c1.3-0.1,2.4-1.3,2.6-2.8
	C388.7,128.6,387.2,127.2,385.7,127.3z"/>
<path style="fill:#FEC348;" d="M362.4,142.5c-1.4,0.1-2.5,1.2-2.7,2.5c-0.2,1.8,1.4,3.5,3.1,3.3c1.3-0.1,2.4-1.3,2.6-2.8
	C365.4,143.8,363.9,142.4,362.4,142.5z"/>
<path style="fill:#FEC348;" d="M412.9,122.4c-1.4,0.1-2.5,1.2-2.7,2.5c-0.2,1.8,1.4,3.5,3.1,3.3c1.3-0.1,2.4-1.3,2.6-2.8
	C415.9,123.7,414.5,122.4,412.9,122.4z"/>
<path style="fill:#D1D3D4;" d="M382.2,275.4"/>
<path style="fill:#BCBEC0;" d="M602.3,268.6"/>
<path style="fill:#D1D3D4;" d="M551.3,413.2c-4.6-0.9-7.6-12.2-8.5-15.8c-1.2-4.5-1.4-8-1.9-14.5c-0.3-4-1.4-18.2,0.5-19
	c1.7-0.7,4.3,10,6.3,9.1c0.8-0.3,0.8-2.3,2.8-9.4c1-3.3,1.4-4.4,2-4.4c0.3,0,0.9,0.5,2.1,4.6c2,6.9,1.6,10.2,2.6,10.9
	c1.8,1.3,4.7-8,6.2-6.8c1.1,0.9,0.7,7.3,0.3,12.2c-0.8,9.8-1.2,14.7-3,20.1C559.3,404.2,555.9,414.1,551.3,413.2z"/>
<path style="fill:#D1D3D4;" d="M568.4,164.1"/>
<path style="fill:#6F7173;" d="M542.4,240.6"/>
<line style="fill:none;" x1="506" y1="426" x2="506" y2="426"/>
<path style="fill:#D1D3D4;" d="M478.1,279.2c0.8,4-2.1,7.6-23.3,27.5c-22.5,21.2-28.2,25.7-32.4,35.9c-3.5,8.6-3.8,16.2-5.7,16.2
	c-1.3,0-2.1-3.6-3-7.2c-0.5-2.1-1.7-6.9-1.6-12.2c0.6-35.3,17.3-54.6,17.3-54.6c5.8-6.5,13.2-14.9,24.7-16.1
	C464.4,267.6,476.7,272,478.1,279.2z"/>
</svg>
